<?xml version="1.0" standalone="no"?>
<!DOCTYPE svg PUBLIC "-//W3C//DTD SVG 20010904//EN"
 "http://www.w3.org/TR/2001/REC-SVG-20010904/DTD/svg10.dtd">
<svg version="1.0" xmlns="http://www.w3.org/2000/svg"
 width="148.000000pt" height="54.000000pt" viewBox="0 0 148.000000 54.000000"
 preserveAspectRatio="xMidYMid meet">

<g transform="translate(0.000000,54.000000) scale(0.100000,-0.100000)"
fill="#000000" stroke="none">
<path d="M20 364 c0 -8 11 -20 25 -26 31 -14 33 -32 2 -23 -21 6 -21 6 -3 -9
11 -9 29 -16 40 -17 21 0 21 -1 1 -9 -18 -7 -18 -9 -3 -15 9 -4 23 -3 29 1 9
5 10 2 6 -9 -4 -11 -1 -17 8 -17 8 0 23 -7 33 -15 9 -9 34 -29 54 -46 l37 -30
48 37 c26 20 50 40 51 45 2 5 13 9 24 9 13 0 18 5 15 14 -4 10 -1 13 8 10 8
-3 20 -2 26 2 9 5 7 10 -7 15 -18 7 -18 8 2 8 11 1 29 8 40 17 18 15 18 15 -3
9 -31 -9 -29 9 2 23 14 6 25 18 25 27 0 11 -12 7 -47 -15 -26 -17 -53 -30 -60
-30 -8 0 -29 -16 -47 -36 -23 -25 -39 -35 -51 -31 -9 4 -14 11 -11 16 4 5 -2
8 -11 7 -9 -2 -19 -8 -21 -14 -7 -22 -33 -12 -50 17 -10 18 -30 33 -53 40 -20
6 -53 22 -73 36 -27 19 -36 21 -36 9z"/>
<path d="M470 228 c0 -60 2 -68 19 -68 14 0 17 6 13 25 -4 23 -1 25 32 25 50
0 76 15 76 46 0 30 -33 45 -96 42 l-44 -1 0 -69z m110 27 c0 -11 -11 -15 -40
-15 -29 0 -40 4 -40 15 0 11 11 15 40 15 29 0 40 -4 40 -15z"/>
<path d="M633 293 c-9 -3 -13 -26 -13 -69 0 -55 2 -64 18 -64 15 0 18 6 14 30
-4 30 -4 30 43 30 47 0 47 0 43 -30 -4 -24 -1 -30 14 -30 17 0 19 7 16 70 -2
49 -6 70 -15 70 -7 0 -13 -11 -13 -25 0 -23 -4 -25 -44 -25 -39 0 -45 3 -48
23 -2 14 -8 22 -15 20z"/>
<path d="M850 230 c0 -61 2 -70 18 -70 15 0 18 6 14 30 -4 30 -4 30 43 30 47
0 47 0 43 -30 -4 -24 -1 -30 14 -30 17 0 19 7 16 70 -2 57 -5 70 -19 70 -12 0
-15 -7 -11 -25 4 -24 2 -25 -42 -25 -42 0 -46 2 -46 25 0 16 -6 25 -15 25 -12
0 -15 -14 -15 -70z"/>
<path d="M1040 260 c24 -31 31 -48 28 -70 -4 -24 -1 -30 14 -30 14 0 18 8 18
34 0 22 9 45 25 64 30 36 31 42 7 42 -11 0 -24 -12 -31 -26 -9 -21 -14 -24
-26 -14 -8 7 -15 19 -15 26 0 8 -11 14 -26 14 l-26 0 32 -40z"/>
<path d="M1170 230 c0 -62 2 -70 19 -70 14 0 17 6 13 25 -4 23 -1 25 32 25 50
0 76 15 76 46 0 30 -31 44 -96 44 l-44 0 0 -70z m110 25 c0 -11 -11 -15 -40
-15 -29 0 -40 4 -40 15 0 11 11 15 40 15 29 0 40 -4 40 -15z"/>
<path d="M1343 293 c-21 -4 -23 -10 -23 -69 l0 -64 70 0 c56 0 70 3 70 15 0
12 -13 15 -55 15 -30 0 -55 5 -55 10 0 6 16 10 35 10 24 0 35 5 35 15 0 10
-11 15 -35 15 -24 0 -35 5 -35 15 0 11 12 15 50 15 38 0 50 4 50 15 0 15 -51
19 -107 8z"/>
</g>
</svg>
